<?xml version="1.0" encoding="UTF-8" standalone="no"?>
<svg
   width="344.71179"
   height="256.68076"
   viewBox="0 0 344.71179 256.68076"
   version="1.1"
   id="svg9"
   xmlns="http://www.w3.org/2000/svg"
   xmlns:svg="http://www.w3.org/2000/svg">
  <defs
     id="defs9" />
  <g
     id="g9"
     transform="translate(-63.288212,-128.29062)">
    <path
       d="m 321.28,251.91 c -11.21,3.77 -26.44,2.23 -35.51,-3.6 -14.49,-9.3 -21.3,-20.08 -22.47,-35.51 -0.67,-8.97 0.83,-17.98 4,-23.93 3.53,-6.62 12.92,-16.15 18.84,-19.12 19,-9.55 38.77,-6.62 53.27,7.88 5.42,5.41 11.59,15.86 11.59,19.61 0,0.97 0.34,1.76 0.75,1.76 0.41,0 0.46,5.29 0.1,11.75 -0.51,9.21 -1.13,12.72 -2.87,16.25 -5.88,11.9 -15.95,20.95 -27.7,24.91 z M 301,242.59 c 3.02,0.65 6.4,1.05 7.5,0.86 1.1,-0.18 3.87,-0.58 6.15,-0.88 9.11,-1.23 19.61,-9.62 24.14,-19.29 2.26,-4.82 2.7,-7.11 2.66,-13.78 -0.1,-15.02 -6.69,-25.44 -20.05,-31.7 -6.05,-2.82 -7.13,-3.01 -15.2,-2.6 -9.07,0.46 -13.91,2.2 -20.9,7.52 -4.46,3.4 -8.86,10.67 -10.89,17.99 -3.02,10.94 0.51,23.98 8.74,32.2 5.16,5.16 10.55,8.08 17.85,9.68 z"
       fill="#3db4ad"
       id="path1" />
    <path
       d="m 301,242.59 c -7.3,-1.6 -12.69,-4.52 -17.85,-9.68 -8.23,-8.22 -11.76,-21.26 -8.74,-32.2 2.03,-7.32 6.43,-14.59 10.89,-17.99 6.99,-5.32 11.83,-7.06 20.9,-7.52 8.07,-0.41 9.15,-0.22 15.2,2.6 13.36,6.26 19.95,16.68 20.05,31.7 0.04,6.67 -0.4,8.96 -2.66,13.78 -4.53,9.67 -15.03,18.06 -24.14,19.29 -2.28,0.3 -5.05,0.7 -6.15,0.88 -1.1,0.19 -4.48,-0.21 -7.5,-0.86 z"
       fill="#90caeb"
       id="path2" />
    <path
       d="m 268.37,352.35 c -6.62,3.94 -9.43,4.48 -11.34,2.18 -0.72,-0.86 -1.57,-7.04 -2.06,-14.98 -1.04,-16.74 -1.9,-22.61 -3.35,-23.05 -0.61,-0.19 -8.26,-0.56 -17,-0.84 -15.76,-0.5 -15.89,-0.48 -18.29,1.92 -1.76,1.76 -3.52,2.42 -6.44,2.42 -3.59,0 -4.61,-0.61 -9.51,-5.75 -13.6,-14.24 -29.38,-47.5 -29.38,-61.92 0,-6.61 0.92,-8.51 6.99,-14.38 l 4.7,-4.54 0.12,3.08 c 0.15,4.06 5.33,19.46 10.86,32.26 5.38,12.47 15.42,29.31 19.53,32.77 2.91,2.44 3.39,2.52 13.03,2 16.2,-0.87 38.35,-6.6 58.27,-15.06 19.61,-8.34 37.72,-20.07 53,-34.34 9.26,-8.65 24.25,-24.79 28,-30.15 1.65,-2.36 5.37,-7.46 8.27,-11.33 2.9,-3.87 5.78,-8.76 6.41,-10.85 0.63,-2.1 1.75,-4.31 2.48,-4.92 2.28,-1.9 1.53,-3.92 -4.02,-10.76 -9.47,-11.69 -14.39,-20.19 -18.11,-31.3 -1.94,-5.82 -3.78,-12.77 -4.08,-15.45 -0.3,-2.67 -0.74,-6.1 -0.97,-7.61 L 355.05,129 h 6.99 c 9.5,0 25.39,2.67 30.06,5.05 2.1,1.07 4.47,1.95 5.27,1.95 0.79,0 3.42,2.19 5.82,4.87 l 4.38,4.87 -0.72,7.38 c -0.98,9.87 -3.32,20.63 -5.38,24.69 -0.92,1.82 -1.47,4.41 -1.21,5.75 0.29,1.56 0,2.44 -0.82,2.44 -1.09,0 -2.98,4.05 -3.89,8.31 -0.13,0.65 -0.52,1.87 -0.86,2.69 -0.33,0.82 -1.56,4.43 -2.73,8 -2.2,6.72 -7.65,17.45 -13.72,27 -13.49,21.21 -41.1,47.84 -66.48,64.1 -2.64,1.7 -3.86,3.28 -4.17,5.4 -3.76,26.11 -8.93,32.81 -39.22,50.85 z M 191,212.32 c -3.02,5.29 -5.78,9.63 -6.13,9.64 -0.34,0.02 -1.17,-0.61 -1.83,-1.41 -0.67,-0.8 -3.31,-2.66 -5.87,-4.14 -22.5,-12.92 -23.29,-13.49 -22.97,-16.75 0.24,-2.45 1.86,-4.41 7.8,-9.43 4.12,-3.49 8.85,-7.05 10.5,-7.93 1.65,-0.87 4.28,-2.65 5.85,-3.96 8.46,-7.06 23.23,-9.25 37.15,-5.5 l 7,1.88 -6.02,5.89 c -10.64,10.41 -19.84,21.86 -25.48,31.71 z m 130.85,43.05 c -3.33,0.96 -8.89,1.58 -13.5,1.51 -8.15,-0.12 -9.62,-0.32 -15.17,-2.04 -5.5,-1.72 -2.89,-2 3.39,-0.36 20.31,5.29 40.39,-3.49 51.68,-22.59 4.49,-7.6 4.73,-7.25 0.88,1.32 -2.09,4.65 -4.47,7.84 -8.75,11.68 -6.71,6.02 -10.53,8.18 -18.53,10.48 z"
       fill="#af2c32"
       id="path3" />
    <path
       d="m 191,212.32 c 5.64,-9.85 14.84,-21.3 25.48,-31.71 l 6.02,-5.89 -6.37,-1.71 c 2.58,0.58 4.99,0.99 5.95,0.99 1.25,0 5.46,-2.41 9.35,-5.35 29.14,-22.06 58.49,-34.07 96.07,-39.3 10.19,-1.42 25.27,-1.33 38.52,-0.22 -1.41,-0.08 -2.75,-0.13 -3.98,-0.13 h -6.99 l 0.43,2.75 c 0.23,1.51 0.67,4.94 0.97,7.61 0.3,2.68 2.14,9.63 4.08,15.45 3.72,11.11 8.64,19.61 18.11,31.3 5.55,6.84 6.3,8.86 4.02,10.76 -0.73,0.61 -1.85,2.82 -2.48,4.92 -0.63,2.09 -3.51,6.98 -6.41,10.85 -2.9,3.87 -6.62,8.97 -8.27,11.33 -3.75,5.36 -18.74,21.5 -28,30.15 -15.28,14.27 -33.39,26 -53,34.34 -19.92,8.46 -42.07,14.19 -58.27,15.06 -9.64,0.52 -10.12,0.44 -13.03,-2 -4.11,-3.46 -14.15,-20.3 -19.53,-32.77 -5.53,-12.8 -10.71,-28.2 -10.86,-32.26 l -0.12,-3.08 -3.63,3.51 c 2.12,-2.35 3.44,-4.77 4.5,-8.15 1.63,-5.22 1.72,-5.75 0.24,-7.44 0.44,0.39 0.85,0.65 1.07,0.63 0.35,-0.01 3.11,-4.35 6.13,-9.64 z m 130.85,43.05 c 8,-2.3 11.82,-4.46 18.53,-10.48 4.28,-3.84 6.66,-7.03 8.75,-11.68 3.51,-7.82 3.62,-8.8 0.21,-3.15 4.78,-8.61 6.64,-19.07 4.57,-26.06 l -1.34,-4.5 -0.67,11.5 c -0.53,8.93 -1.18,12.51 -2.91,16 -3.97,7.98 -9.54,14.41 -16.12,18.99 6.68,-4.71 12.28,-11.25 16.11,-18.99 1.74,-3.53 2.36,-7.04 2.87,-16.25 0.36,-6.46 0.31,-11.75 -0.1,-11.75 -0.41,0 -0.75,-0.79 -0.75,-1.76 0,0.97 0.4,1.76 0.89,1.76 2.02,0 -1,-8.52 -5.49,-15.5 -10.26,-15.96 -28.92,-23.95 -47.04,-20.15 -27.45,5.76 -43.23,30.37 -36.85,57.45 1.84,7.77 3.6,11.29 8.88,17.68 7.67,9.29 12.33,12.66 21.41,15.15 -3.29,-0.58 -3.82,-0.11 0.38,1.21 5.55,1.72 7.02,1.92 15.17,2.04 4.61,0.07 10.17,-0.55 13.5,-1.51 z M 193.2,230.8 c 0.66,0.66 1.48,1.2 1.83,1.2 1.14,0 4.66,-4.43 7.55,-9.5 6.79,-11.92 25.3,-32.4 39.73,-43.97 25.49,-20.42 62.58,-35.67 95.02,-39.07 7.09,-0.74 9,-2.16 6.66,-4.97 -1.79,-2.16 -8.37,-1.87 -22.36,0.97 -52.48,10.67 -95.56,39.35 -124.07,82.61 -5.73,8.71 -6.41,10.68 -4.36,12.73 z m 127.52,23.38 c -7.02,2.09 -14.56,2.41 -22.18,0.76 7.94,1.45 15.38,1.17 22.18,-0.76 z m -57.49,-42.54 c -0.55,-8.25 0.76,-16.55 4.07,-22.77 -3.03,5.69 -4.54,14.19 -4.07,22.77 z M 212.36,172.1 c -8.06,-1.65 -16.23,-1.36 -23.14,0.67 7.06,-2.11 15.39,-2.43 23.14,-0.67 z m 100.28,81.62 c -5.5,0.65 -11.21,0.28 -16.93,-1.21 -0.74,-0.19 -1.49,-0.42 -2.25,-0.68 5.9,1.87 12.75,2.55 19.18,1.89 z m -32.19,-9.16 c -3.74,-2.88 -7.15,-6.26 -9.7,-9.77 -1.23,-1.69 -2.32,-3.58 -3.26,-5.61 2.81,5.77 7.06,10.79 12.96,15.38 z M 379,130.65 c 5.83,0.93 10.51,2.08 13.1,3.4 -2.32,-1.18 -7.4,-2.44 -13.1,-3.4 z m -31.34,102.21 c -2.34,3.79 -5.03,7.15 -8,10.05 2.9,-2.88 5.57,-6.23 8,-10.05 z M 183.04,220.54 c -1.23,-1.12 -3.56,-2.77 -5.69,-4.02 2.5,1.45 5.03,3.24 5.69,4.02 z m -7.57,19.94 c -2.87,3.05 -3.95,5.06 -4.31,8.23 0.37,-3.27 1.47,-5.3 4.31,-8.23 z m -2.93,-26.72 c -7.49,-4.32 -11.97,-6.96 -14.64,-8.8 2.67,1.84 7.15,4.48 14.64,8.8 z"
       fill="#ce383e"
       id="path4" />
    <path
       d="m 321.28,251.91 c 4.11,-1.38 8,-3.39 11.59,-5.92 6.58,-4.58 12.15,-11.01 16.12,-18.99 1.73,-3.49 2.38,-7.07 2.91,-16 l 0.67,-11.5 1.34,4.5 c 2.07,6.99 0.21,17.45 -4.57,26.06 -0.33,0.55 -0.69,1.16 -1.09,1.83 -0.19,0.33 -0.39,0.65 -0.59,0.97 0,0.01 -0.01,0.02 -0.01,0.03 -2.43,3.8 -5.1,7.15 -7.99,10.02 -5.5,5.38 -11.96,9.2 -18.94,11.27 -6.8,1.93 -14.24,2.21 -22.18,0.76 -0.66,-0.14 -1.32,-0.29 -1.97,-0.46 -1.48,-0.39 -2.76,-0.67 -3.77,-0.85 -9.08,-2.49 -13.74,-5.86 -21.41,-15.15 -5.28,-6.39 -7.04,-9.91 -8.88,-17.68 -6.38,-27.08 9.4,-51.69 36.85,-57.45 18.12,-3.8 36.78,4.19 47.04,20.15 4.49,6.98 7.51,15.5 5.49,15.5 -0.49,0 -0.89,-0.79 -0.89,-1.76 0,-3.75 -6.17,-14.2 -11.59,-19.61 -14.5,-14.5 -34.27,-17.43 -53.27,-7.88 -5.92,2.97 -15.31,12.5 -18.84,19.12 -3.03,5.69 -4.54,14.19 -4.07,22.77 0.02,0.39 0.04,0.77 0.07,1.16 0.46,6.13 1.82,11.52 4.19,16.38 0.94,2.03 2.03,3.92 3.26,5.61 2.55,3.51 5.96,6.89 9.7,9.77 1.64,1.28 3.41,2.53 5.32,3.75 2.24,1.44 4.86,2.62 7.69,3.52 0.76,0.26 1.51,0.49 2.25,0.68 5.72,1.49 11.43,1.86 16.93,1.21 3.02,-0.31 5.95,-0.91 8.64,-1.81 z m 64.73,-33.42 c 2.65,-5.12 4.77,-9.88 5.95,-13.49 1.17,-3.57 2.4,-7.18 2.73,-8 0.34,-0.82 0.73,-2.04 0.86,-2.69 0.91,-4.26 2.8,-8.31 3.89,-8.31 0.82,0 1.11,-0.88 0.82,-2.44 -0.26,-1.34 0.29,-3.93 1.21,-5.75 2.06,-4.06 4.4,-14.82 5.38,-24.69 l 0.63,-6.44 c 0.51,1.52 0.52,3.34 0.52,6.82 0,11.17 -6.14,33 -11.5,40.9 -1.33,1.96 -2.92,5.48 -3.54,7.83 -1.11,4.22 -3.61,9.98 -6.95,16.26 z M 210.03,320 c 2.84,-0.02 4.57,-0.69 6.3,-2.42 2.4,-2.4 2.53,-2.42 18.29,-1.92 8.23,0.26 15.5,0.61 16.83,0.81 L 237.98,316 c -13.52,-0.47 -14.71,-0.36 -18.87,1.75 -2.61,1.32 -6.27,2.25 -8.84,2.25 -0.08,0 -0.16,0 -0.24,0 z m 138.82,-53.51 c 8.44,-8.09 16.13,-16.5 22.34,-24.53 -0.89,1.2 -1.78,2.36 -2.67,3.5 -5.05,6.42 -11.96,13.75 -19.67,21.03 z m -95.3,56.15 c 0.48,3.63 0.93,9.06 1.42,16.87 -0.02,-0.3 -0.04,-0.59 -0.06,-0.89 -0.39,-6.14 -0.93,-12.45 -1.36,-15.98 z m -46.42,-2.93 c -1.85,-0.5 -3.32,-1.86 -6.75,-5.46 3.4,3.56 4.93,4.95 6.75,5.46 z"
       fill="#944349"
       id="path5" />
    <path
       d="m 193.2,230.8 c -2.05,-2.05 -1.37,-4.02 4.36,-12.73 28.51,-43.26 71.59,-71.94 124.07,-82.61 13.99,-2.84 20.57,-3.13 22.36,-0.97 2.34,2.81 0.43,4.23 -6.66,4.97 -32.44,3.4 -69.53,18.65 -95.02,39.07 -14.43,11.57 -32.94,32.05 -39.73,43.97 -2.89,5.07 -6.41,9.5 -7.55,9.5 -0.35,0 -1.17,-0.54 -1.83,-1.2 z M 151.5,260 c -1.1,0.47 -2.9,0.88 -4,0.91 -1.65,0.05 -1.74,-0.11 -0.5,-0.91 0.82,-0.53 2.62,-0.94 4,-0.91 2.29,0.05 2.33,0.12 0.5,0.91 z"
       fill="#db5d60"
       id="path6" />
    <path
       d="m 207.13,319.71 c 0.02,0.01 0.03,0.01 0.05,0.02 -1.8,-0.46 -3.15,-1.66 -6.04,-4.68 l -4.75,-4.96 -2.94,6.18 c -4.35,9.18 -13.74,18.18 -24.45,23.45 -6.07,2.99 -8.47,3 -7.5,0.03 1.38,-4.26 1.74,-9.75 0.64,-9.75 -0.59,0 -2.55,1.29 -4.36,2.87 -5.57,4.86 -14.12,9.86 -19.71,11.52 -6.33,1.88 -21.91,2.3 -24.94,0.68 -3.51,-1.88 -2.49,-3.68 4.85,-8.56 8.41,-5.59 11.76,-9.49 17.18,-20.01 2.26,-4.4 5.66,-9.91 7.55,-12.25 3.93,-4.88 3.12,-5.96 -3.69,-4.87 -2.14,0.34 -4.12,0.27 -4.39,-0.17 -1.08,-1.75 3.46,-9.26 8.73,-14.44 6.68,-6.58 16.9,-12.15 25.25,-13.78 l 6.12,-1.2 -1.87,-5.98 c -0.68,-2.21 -1.18,-4.68 -1.48,-7.11 2.47,15.94 16.63,44.6 29,57.55 3.43,3.6 4.9,4.96 6.75,5.46 z m -33.76,-76.8 c -1.29,1.76 -1.91,3.39 -2.18,5.58 0.16,-1.58 0.47,-2.91 0.93,-3.81 0.22,-0.42 0.67,-1.05 1.25,-1.77 z"
       fill="#f5b337"
       id="path7" />
    <path
       d="m 151.5,260 c 1.42,-0.61 1.71,-0.79 0.71,-0.87 2.44,-0.39 5.06,-0.65 8.04,-0.82 L 171,257.7 v -5.37 c 0,1.31 0.13,2.78 0.38,4.37 0.3,2.43 0.8,4.9 1.48,7.11 l 1.87,5.98 -6.12,1.2 c -8.35,1.63 -18.57,7.2 -25.25,13.78 -5.27,5.18 -9.81,12.69 -8.73,14.44 0.27,0.44 2.25,0.51 4.39,0.17 6.81,-1.09 7.62,-0.01 3.69,4.87 -1.89,2.34 -5.29,7.85 -7.55,12.25 -5.42,10.52 -8.77,14.42 -17.18,20.01 -7.34,4.88 -8.36,6.68 -4.85,8.56 3.03,1.62 18.61,1.2 24.94,-0.68 5.59,-1.66 14.14,-6.66 19.71,-11.52 1.81,-1.58 3.77,-2.87 4.36,-2.87 1.1,0 0.74,5.49 -0.64,9.75 -0.97,2.97 1.43,2.96 7.5,-0.03 10.71,-5.27 20.1,-14.27 24.45,-23.45 l 2.94,-6.18 4.75,4.96 c 2.89,3.02 4.24,4.22 6.04,4.68 0.79,0.21 1.63,0.27 2.71,0.27 0.05,0 0.1,0 0.14,0 0.08,0 0.16,0 0.24,0 1.07,0 2.34,-0.16 3.65,-0.45 -1.25,0.28 -2.43,0.45 -3.36,0.45 h -4.1 l -2.68,8.79 c -5.56,18.27 -20.43,34.78 -38.71,42.98 -11.25,5.05 -24.07,7.89 -24.07,5.33 0,-0.49 1.35,-3.46 3,-6.6 3.07,-5.84 4.09,-13.71 1.95,-15.03 -0.58,-0.36 -4.53,1.63 -8.79,4.42 -11.52,7.57 -38.92,18.54 -58.8,23.56 -7.97,2.01 -14.24,2.03 -15,0.05 -1.03,-2.69 9.15,-19.46 22.39,-36.9 7.16,-9.43 23.92,-28.24 28.31,-31.77 2.17,-1.74 3.94,-3.76 3.94,-4.5 0,-1.86 -9.06,-1.75 -13.65,0.17 -1.98,0.83 -4.5,1.5 -5.6,1.5 -1.78,0 -1.95,-0.48 -1.46,-4.09 1.39,-10.42 18.45,-31.22 32.43,-39.55 6.7,-4 11.61,-6.43 16.65,-7.91 -0.49,0.41 -0.15,0.5 1.13,0.46 1.1,-0.03 2.9,-0.44 4,-0.91 z m 19.7,-11.6 c -0.01,0.03 -0.01,0.06 -0.01,0.09 v 0 c -0.01,0.08 -0.02,0.15 -0.03,0.22 -0.12,1.04 -0.16,2.21 -0.16,3.57 0,-1.49 0.05,-2.76 0.2,-3.88 z"
       fill="#f47319"
       id="path8" />
  </g>
</svg>
